<?xml version="1.0" standalone="no"?><!DOCTYPE svg PUBLIC "-//W3C//DTD SVG 1.1//EN" "http://www.w3.org/Graphics/SVG/1.1/DTD/svg11.dtd"><svg t="1690969598593" class="icon" viewBox="0 0 1024 1024" version="1.1" xmlns="http://www.w3.org/2000/svg" p-id="8760" xmlns:xlink="http://www.w3.org/1999/xlink" width="200" height="200"><path d="M146 129h462.4c8.8 0 16-7.2 16-16s-7.2-16-16-16H146c-8.8 0-16 7.2-16 16s7.2 16 16 16zM146.1 287.6c-8.8 0-16 7.2-16 16s7.2 16 16 16h365.2c8.8 0 16-7.2 16-16s-7.2-16-16-16H146.1zM912 710.4h-0.7c-37.1 0-74.3 8.8-107.5 25.4l-137.4 68.8c-9.3 3.2-19.6-1.4-23.3-10.6l-38.9-96.8c-5.9-14.7-18-25.7-33.2-30.2-15.2-4.5-31.4-1.8-44.3 7.4l-59.4 42.1c-5.9 4.2-11.3 1.9-13.4 0.7-2.1-1.2-6.9-4.7-6.3-11.9l9-112.7c1.7-20.7-7.1-39.4-22.9-48.8-16.2-9.7-36.5-8-55.8 4.4-62.7 40.6-100.5 78.2-161.7 160.6-49 66.1-55.1 77-94.6 148.1-6.4 11.6-13.8 24.8-22.3 40.1-4.3 7.7-1.6 17.5 6.2 21.8 2.5 1.4 5.2 2 7.8 2 5.6 0 11-3 14-8.2 8.6-15.3 15.9-28.6 22.4-40.1 39.5-71 44.6-80.2 92.3-144.5 59.2-79.8 93.6-114.1 153.4-152.8 8.6-5.6 16.6-7 22-3.8 5.2 3.1 8 10.3 7.4 18.7l-9 112.7c-1.4 17.4 7.2 33.6 22.4 42.2 15.2 8.6 33.5 7.7 47.7-2.4l59.4-42.1c4.9-3.5 11-4.5 16.8-2.8 5.8 1.7 10.3 5.9 12.6 11.4l38.9 96.8c10.3 25.5 39.5 38.2 65.2 28.3l0.7-0.3 138.8-69.5c28.8-14.4 61-22 93.2-22h0.7c8.8 0 16-7.1 16-16-0.2-8.8-7.3-16-16.2-16zM943.8 116l-33.3-33.3c-7.7-7.7-20.3-7.7-28 0L530.3 435c-2.2 2.2-3.9 4.9-4.8 7.9l-15.8 48.5c-5 15.3 9.4 29.8 24.7 25l49.1-15.3c3.1-1 5.8-2.6 8.1-4.9L943.8 144c7.7-7.7 7.7-20.3 0-28z" fill="#333333" p-id="8761"></path></svg>