<?xml version="1.0" standalone="no"?><!DOCTYPE svg PUBLIC "-//W3C//DTD SVG 1.1//EN" "http://www.w3.org/Graphics/SVG/1.1/DTD/svg11.dtd"><svg t="1691392492026" class="icon" viewBox="0 0 1024 1024" version="1.1" xmlns="http://www.w3.org/2000/svg" p-id="2319" xmlns:xlink="http://www.w3.org/1999/xlink" width="200" height="200"><path d="M870.4512 385.0752c-18.3808-17.3568-41.984-27.136-66.4576-27.648-1.8944-0.0512-3.7888 0-5.632 0.0512V160.9728c0-22.5792-18.2784-40.8576-40.8576-40.8576H193.4336c-22.5792 0-40.8576 18.2784-40.8576 40.8576v702.0032c0 22.5792 18.2784 40.8576 40.8576 40.8576h564.0704c22.5792 0 40.8576-18.2784 40.8576-40.8576v-260.4544l80.1792-84.992c34.4064-36.4032 30.7712-95.7952-8.0896-132.4544z m-137.472 453.4272H217.9584V185.4976h515.0208v204.1856l-179.3024 190.0032c-5.3248 5.632-9.216 12.2368-11.6736 19.6096l-48.0768 145.7152a32.70656 32.70656 0 0 0 44.0832 40.2432l139.008-60.3136c6.5536-2.8672 12.3904-6.912 17.3056-12.0832l38.656-41.0112v166.656z m97.9968-365.824l-32.6144 34.56-65.3824 69.3248-84.4288 89.4464-69.632 30.2592 24.32-73.7792 129.7408-137.472 52.3264-55.4496c4.0448-4.3008 9.0624-5.9392 13.1072-6.5024 1.6896-0.256 3.1744-0.3072 4.352-0.256 8.192 0.1536 16.3328 3.6352 22.8864 9.8304 12.3392 11.6736 14.7968 30.0032 5.3248 40.0384z" fill="#666666" p-id="2320"></path><path d="M306.176 369.152h337.92c18.0736 0 32.768-14.6944 32.768-32.768s-14.6944-32.768-32.768-32.768h-337.92a32.768 32.768 0 1 0 0 65.536zM574.464 489.984c0-18.0736-14.6944-32.768-32.768-32.768h-235.52c-18.0736 0-32.768 14.6944-32.768 32.768s14.6944 32.768 32.768 32.768h235.52c18.0736 0 32.768-14.6944 32.768-32.768z" fill="#666666" p-id="2321"></path><path d="M0 0h1024v1024H0z" fill="#666666" fill-opacity="0" p-id="2322"></path></svg>