<?xml version="1.0" standalone="no"?><!DOCTYPE svg PUBLIC "-//W3C//DTD SVG 1.1//EN" "http://www.w3.org/Graphics/SVG/1.1/DTD/svg11.dtd"><svg t="1690939813630" class="icon" viewBox="0 0 1024 1024" version="1.1" xmlns="http://www.w3.org/2000/svg" p-id="4487" xmlns:xlink="http://www.w3.org/1999/xlink" width="200" height="200"><path d="M904.676835 308.066909c-13.016912-54.237132-44.452753-95.023455-89.361099-145.615852C759.603354 101.965808 668.20294 69.423529 531.525367 71.593014c-76.734694 1.214912-145.355513 30.372794-167.050366 39.050735s-84.609926 49.898161-112.813234 82.44044-78.10147 95.457352-60.745588 158.372425c12.084033 43.801908 17.919948 99.796323-8.222349 150.34533l-0.260338 0.520676-0.303728 0.520677c-19.265029 34.342952-45.385632 65.952352-52.740187 84.609926a50.505617 50.505617 0 0 0 9.654209 1.301691A42.565301 42.565301 0 0 1 161.736602 596.60845c9.372176 6.66032 28.6589 27.22704 24.840607 61.700162v20.393161c10.478614 5.532187 18.180287 21.564684 21.36943 33.12804a42.565301 42.565301 0 0 1-2.386434 29.59178 39.593106 39.593106 0 0 0 2.863721 5.293544c8.547772 10.673868 26.793143 34.516511 16.401308 73.762499a90.771264 90.771264 0 0 0-0.75932 23.864338l1.757283 2.061011c3.145754 1.713893 15.186397 7.050827 42.565302 7.050827a283.204608 283.204608 0 0 0 34.928712-2.386434h0.260339c3.124059-0.368812 6.855573-0.911184 10.847426-1.496945a302.686585 302.686585 0 0 1 44.127331-4.013547c39.853444 0 58.380849 13.494198 80.748241 40.113782a44.344279 44.344279 0 0 1 3.839989 5.336934c6.269812 10.23997 32.238551 53.239169 50.223584 91.118382 54.866283-36.425658 161.908686-101.163098 273.355145-133.770462-12.084033-55.625602-22.996544-164.598848 42.174794-258.255527l1.106437-1.51864c1.041353-1.366776 25.860264-34.169393 50.245279-74.847242 39.397853-65.670319 46.296816-98.71158 46.904272-112.552896a42.500217 42.500217 0 0 1 1.214912-8.677941 237.688807 237.688807 0 0 0-3.688125-84.436367zM828.202479 468.782378c-26.033823 59.72593-123.487102 58.380849-155.790738-35.904981-1.388471-4.078632-3.384397-9.892853-4.772867-12.713184-7.571504-0.542371-77.190286 11.975559-95.978029-38.22633-4.46914-11.953864-3.948463-23.864338-3.557956-33.323294 0.173559-3.818294 0.889489-14.622331-1.865757-18.375541-15.663684-6.812184-87.690595 35.167356-141.623999-43.584959-39.875139-58.25068-3.427787-107.975282 21.41282-126.133874A254.610792 254.610792 0 0 1 828.202479 468.782378z" fill="#0173fa" p-id="4488"></path><path d="M497.442754 34.711764c189.743182 1.713893 260.077895 60.745588 315.790276 121.230838 44.93004 50.592397 74.283176 103.788176 87.278393 158.112086 10.131496 42.304963 6.204728 69.24997 5.770831 71.918437a42.500217 42.500217 0 0 0-1.214912 8.677941c-0.607456 13.841316-7.484724 46.882577-46.882577 112.552896-24.406709 40.677849-49.225621 73.480466-50.245279 74.803853l-1.128132 1.562029c-65.084558 93.721764-54.237132 202.695009-42.261573 258.407391-111.489848 32.542279-218.553947 97.344804-273.355145 133.770462-17.985033-37.900908-43.953772-80.900106-50.223584-91.118382a42.088014 42.088014 0 0 0-3.839989-5.336933c-22.367393-26.619584-53.911709-40.113783-93.765153-40.113783a302.686585 302.686585 0 0 0-44.127331 4.013548c-3.948463 0.585761-7.679978 1.128132-10.847426 1.496945h-0.260338a283.204608 283.204608 0 0 1-34.928713 2.386433c-27.400599 0-39.419547-5.336934-42.565301-7.050827l-1.757284-2.061011a90.944823 90.944823 0 0 1 0.781015-23.864338c10.37014-39.332768-7.875232-63.175411-16.423003-73.762499a39.593106 39.593106 0 0 1-2.863721-5.423713 42.326658 42.326658 0 0 0 2.494908-29.570085 42.760555 42.760555 0 0 0-21.36943-26.619584v-20.393161c3.818294-34.473121-11.129459-50.700871-20.479941-57.339496a42.413437 42.413437 0 0 0-22.714511-7.788452 50.505617 50.505617 0 0 1-9.632514-1.301692c7.33286-18.766048 29.114492-61.222874 48.401216-95.457352l0.282033-0.520676 0.260339-0.520677c26.033823-50.527312 7.180996-89.122455-4.143717-112.184083a93.287867 93.287867 0 0 1-6.204728-14.188434v-0.976268C147.548169 273.355145 170.848441 202.738399 232.526907 139.064006a328.677019 328.677019 0 0 1 136.677572-85.043823 415.347956 415.347956 0 0 1 128.238275-19.308419M497.616313 0c-77.841132 0-196.338417 17.681305-290.081876 114.98272-56.601871 58.359154-97.301415 134.508087-84.913654 256.454854 1.778978 26.532805 40.677849 56.601871 14.145044 107.910197 0 0-56.601871 100.815981-54.822893 116.740003 0 0-1.735588 29.505 44.648007 31.782959a7.918621 7.918621 0 0 1 4.338971 1.410166c3.384397 2.408129 8.178959 8.938279 5.944389 26.42433a8.04879 8.04879 0 0 0 0 1.019658V692.065803a8.157265 8.157265 0 0 0 0.824405 3.644735c1.51864 3.058974 5.727441 8.677941 17.030459 13.515893a8.222349 8.222349 0 0 1 3.536261 12.344371l-0.151864 0.195254s-10.522004 12.279287 6.833879 38.551753a8.04879 8.04879 0 0 0 0.498981 0.694236c7.029132 8.677941 17.247408 21.087397 10.456919 45.320547 0 0.238643-0.130169 0.477287-0.173559 0.71593-0.75932 4.447445-7.766757 47.945625 10.673868 57.990341 0 0 14.405382 16.813511 66.885231 16.813511a318.914335 318.914335 0 0 0 39.050735-2.755246c13.407419-1.583724 31.717875-5.271849 50.87443-5.271849 23.669084 0 48.618165 5.618967 67.254043 27.726022a8.178959 8.178959 0 0 1 0.80271 1.128132c4.338971 7.094217 47.012746 77.277065 60.181521 115.65526a8.417603 8.417603 0 0 0 12.843353 4.100327c37.206672-26.359246 175.728307-119.864061 314.011299-153.642947a8.417603 8.417603 0 0 0 6.139643-10.522004c-9.719294-32.780922-38.747007-154.857859 30.850081-254.936214l0.260338-0.347118c3.926768-5.18507 100.98954-133.770462 104.135293-206.860421a8.482687 8.482687 0 0 1 0.260338-1.974231c2.169485-8.222349 19.243334-126.177264-101.032929-261.48806C777.067711 65.453371 697.469296 1.778978 497.616313 0z" fill="#0173fa" p-id="4489"></path><path d="M608.021418 230.008829m-83.004506 0a83.004507 83.004507 0 1 0 166.009013 0 83.004507 83.004507 0 1 0-166.009013 0Z" fill="#f4ba54" p-id="4490"></path><path d="M763.660292 362.824717m-47.728676 0a47.728676 47.728676 0 1 0 95.457352 0 47.728676 47.728676 0 1 0-95.457352 0Z" fill="#f4ba54" p-id="4491"></path><path d="M617.704726 253.18266m8.004534-9.539433l0 0q8.004535-9.539433 17.543968-1.534898l123.996011 104.045007q9.539433 8.004535 1.534898 17.543968l0 0q-8.004535 9.539433-17.543968 1.534898l-123.99601-104.045007q-9.539433-8.004535-1.534899-17.543968Z" fill="#f4ba54" p-id="4492"></path></svg>